<svg xmlns="http://www.w3.org/2000/svg" width="18" height="18" viewBox="0 0 18 18" fill="none">
  <path fill-rule="evenodd" clip-rule="evenodd" d="M16.2071 1.7932C14.712 0.298102 12.288 0.298102 10.7929 1.7932L9.80781 2.77828L9.79289 2.79289L9.77828 2.80781L0.292893 12.2932C0.105357 12.4807 0 12.7351 0 13.0003V17.0003C0 17.5526 0.447715 18.0003 1 18.0003H5C5.26522 18.0003 5.51957 17.8949 5.70711 17.7074L16.2071 7.20741C17.7022 5.71232 17.7022 3.28829 16.2071 1.7932ZM10.5002 4.91436L2 13.4145V16.0003H4.58579L13.0859 7.50015L10.5002 4.91436ZM14.5002 6.08594L14.7929 5.7932C15.5069 5.07915 15.5069 3.92145 14.7929 3.20741C14.0788 2.49336 12.9212 2.49336 12.2071 3.20741L11.9144 3.50015L14.5002 6.08594Z" fill="#5315f6"/>
</svg>