<svg xmlns="http://www.w3.org/2000/svg" width="20" height="20" viewBox="0 0 20 20" fill="none">
  <path fill-rule="evenodd" clip-rule="evenodd" d="M4 3C4 1.34315 5.34315 0 7 0H13C14.6569 0 16 1.34315 16 3V6H17C18.6569 6 20 7.34315 20 9V13C20 14.6569 18.6569 16 17 16H16V17C16 18.6569 14.6569 20 13 20H7C5.34315 20 4 18.6569 4 17V16H3C1.34315 16 0 14.6569 0 13V9C0 7.34315 1.34315 6 3 6H4V3ZM3 8C2.44772 8 2 8.44772 2 9V13C2 13.5523 2.44772 14 3 14H4V13C4 11.3431 5.34315 10 7 10H13C14.6569 10 16 11.3431 16 13V14H17C17.5523 14 18 13.5523 18 13V9C18 8.44772 17.5523 8 17 8H3ZM14 6H6V3C6 2.44772 6.44772 2 7 2H13C13.5523 2 14 2.44772 14 3V6ZM14 13C14 12.4477 13.5523 12 13 12H7C6.44772 12 6 12.4477 6 13V17C6 17.5523 6.44772 18 7 18H13C13.5523 18 14 17.5523 14 17V13Z" fill="#5315f6"/>
</svg>