<svg width="100%" height="64" viewBox="0 0 177 64" fill="none" xmlns="http://www.w3.org/2000/svg">
    <path
        d="M32.8349 3.00852L33.5091 2.69139L33.8817 2.60354H35.3344L36.7346 2.28731L36.1671 1.987L32.764 2.10937L32.5526 2.02263L32.3213 2.21694L32.231 2.56746L32.4794 2.9182L32.8349 3.00852ZM26.2037 4.81847L28.1533 3.95742L28.6501 3.83505L29.2879 3.55334L29.87 3.53586L30.0664 3.43254L30.0312 3.3429L29.9955 3.16585L29.9612 3.07799L30.7935 3.04348L31.1835 2.90341L31.5205 2.44352L29.43 2.84827L29.2333 2.99149L29.002 3.18288L27.1062 3.5697H26.7885L26.5387 3.80009L25.7762 4.06342L25.6181 4.46683L25.7938 4.81824L26.2037 4.81847ZM39.1643 2.23555V2.30502L39.2533 2.4442L39.537 2.09233L41.9662 1.33573H42.1611V1.17884L41.7695 1.05715L40.3711 1.17884L39.9984 1.26669L39.4668 1.49619L39.1113 1.81152L39.2533 2.12909L39.1643 2.23555ZM45.7237 0.474226L45.7765 0.317347L45.884 0.281487L45.9177 0.230838H45.599L45.4561 0.352532L45.4224 0.474452L45.6345 0.581578L45.7237 0.474226ZM43.8808 0.335498L44.3792 0.507845L44.4131 0.419541L44.4501 0.386151L44.5021 0.350962H44.5734L43.7915 0L43.6131 0.0192735L43.6312 0.174585L43.8808 0.335498ZM22.3573 7.77611L22.676 7.31645L23.7937 6.24272L24.2002 6.08584L24.3768 5.98117H24.7486V5.8243L24.0426 5.71941L23.0834 6.2797L22.1617 7.12371L21.5587 7.89937L22.0011 8.09301L22.3573 7.77611ZM54.1436 9.13044L54.2685 8.74249L54.303 8.37562L54.2856 8.00583L54.2493 7.35253H54.0925L53.0613 7.0883L52.6356 6.84334L52.6024 6.45495L52.5322 6.26042V6.15643L52.5848 6.08584L52.6887 5.98117V5.8243H52.6015L52.4766 5.94599L52.3169 5.99866L52.1403 5.96504L52.0177 5.8243L51.7692 5.89377L51.2008 5.5762L50.7561 5.43523L50.6526 5.33259L50.5815 5.22568L50.5083 5.17234L50.4914 5.1199L50.1526 4.87337L50.0824 4.83976L49.6031 2.90453L49.4312 2.68669L49.1489 2.54415L47.7468 2.3169L44.4147 2.82609L42.3068 3.4424L41.9534 3.72165L41.8296 3.75639L41.6857 3.70349L41.4386 3.49305L41.2957 3.44083L38.5302 3.53048L37.1656 3.59973L36.2084 4.09166L35.8895 4.10959L35.3748 4.47916L33.1233 5.37763L32.6249 5.79964L31.9516 5.90475L31.6684 6.00964L31.42 6.27432L31.2061 6.59144L30.9753 6.85656L30.4626 7.08382L30.1602 7.34805L29.6633 7.9294L29.381 8.63088L28.9891 10.2156L28.7057 10.7956L28.4234 10.991L27.7666 11.1479L27.4997 11.3604L27.2885 11.6044L24.4482 14.1192L23.898 14.3658L23.3305 14.437L23.029 14.5437L22.428 15.0527L22.1082 15.2288L21.5571 15.2624L20.9733 15.0879L20.6526 14.6658L20.8647 13.9615L20.7592 13.7871L20.6187 13.9263L19.7487 13.7871L19.5906 13.9789L19.4849 14.4534L19.4321 14.9982L19.4147 15.4209L19.288 16.1773L18.687 17.7252L18.5438 18.4467L18.5095 18.7974L18.2611 19.9426L17.6571 24.3902L17.373 24.9888V25.1632L17.2481 25.8151L16.3964 28.3153L14.9603 30.883L13.24 33.3989L11.2195 35.8254L10.7421 36.1441L10.1919 36.2313L9.53695 36.0921L9.4466 36.2474L9.35627 36.4245L9.51662 36.8122L9.78177 37.7102L9.8371 38.0616L9.80096 38.1313L9.72892 38.221L9.65868 38.3433L9.62322 38.5195L9.65868 38.6605L9.72892 38.7501L9.81813 38.8212L10.1716 39.3129L10.28 39.5253L10.1013 39.6645L9.96019 39.7349L9.85449 39.7539L9.79894 39.7349L9.40912 39.5253L8.93077 39.4177L8.66404 39.4377L8.54095 39.5946L7.65562 39.8595L7.24909 40.139L7.37286 40.7564H7.51605L7.62242 40.7385L7.67527 40.6488L7.95848 40.5784H8.31284L8.6681 40.4744L8.93325 40.2799L9.34227 40.5601L9.67833 40.8774L9.90779 41.3528L9.99633 42.0894L10.191 42.3888L11.1658 42.6889L11.5195 42.9355L11.6615 43.0941L11.1823 43.128L10.9338 43.232L10.7563 43.4274L10.7224 43.6199V43.8664L10.7563 44.13L10.8272 44.3245L10.9338 44.4467L11.075 44.5531L11.2179 44.6056L11.8375 44.6246L12.0143 44.7974L12.0852 45.2212L11.7464 44.9417L11.3749 44.835L10.1169 44.7638L9.74428 44.8687L8.99897 45.2212L10.1167 46.2571L10.4521 46.4532L10.666 46.4868L11.1089 46.4341L11.3218 46.4532L11.9068 46.7151L12.5462 46.8212L12.936 47.048L13.2375 47.4178L13.3604 47.9121L13.1673 48.422L12.742 48.5437L12.2819 48.5269L11.9978 48.6134L11.7128 48.474L10.9858 48.5789L10.6513 48.474L10.4374 48.193L10.1531 47.4178L9.96109 47.0641L9.37547 46.5536L8.68504 46.2732L7.33785 46.1331V45.9922L7.42616 45.9025L7.67459 45.7456L7.81778 45.6936L7.69289 45.359L7.49798 45.0789L7.26761 44.8673L7.05531 44.7425L6.73641 44.7089L2.94214 45.1123L1.48925 46.0108L1.34629 46.2042L1.39914 46.5737L1.55926 46.8203L2.02113 47.225L2.19706 47.4866L2.39197 47.8389L2.60495 48.156L2.85338 48.2992L3.65131 48.4731L3.97088 48.4554L4.55583 48.2432L4.76813 48.2609L5.3183 48.7907L6.16998 49.212L6.5598 49.6154L6.70118 49.6851L6.85927 49.6672L7.03996 49.5442L7.55263 49.4917L7.76584 49.3861L7.92528 49.1598L8.35056 48.3693L8.54366 48.2436L9.13087 48.2956L9.36237 48.4023L10.1429 49.0706L10.427 49.2461L10.7288 49.3335L12.022 49.3525L12.34 49.2629L12.5003 49.0513L12.6406 49.1564L12.676 49.3308V49.5614L12.7115 49.8409L12.8183 50.1053L12.8727 50.1748L13.2793 50.1941L13.4387 50.2826L13.7931 50.4742L13.9512 50.5269L14.0569 50.5623L14.608 50.5975H14.7136L14.9804 50.4572L14.9987 50.3675L15.0515 50.0672L15.0332 50.0338L14.9614 49.8568L14.6436 49.489L14.608 49.4366L14.5379 49.2956V49.0668L14.6283 48.8904L14.6619 48.7335L14.486 48.5392L15.2313 48.1172L15.7094 47.9426L15.9764 47.8359L16.3472 47.8026H16.3998L16.5767 47.8359L16.6824 48.0329L16.665 48.3124V48.4007L16.5419 48.6811L16.5229 48.786L16.5055 48.8906L16.5932 48.9603L16.7707 49.0845L16.8581 49.1031H16.9484L17.055 49.0845L17.3574 49.0307L17.782 49.1387H17.8349L18.0307 49.1197L18.2256 49.0484L18.3686 48.9435L19.4673 47.6082L19.929 47.3617L20.1221 47.3803L20.2305 47.4139L20.3716 47.4666L20.4419 47.5009L20.6176 47.6266L20.7608 47.818L20.7971 48.1542L20.7413 48.3664L20.7079 48.4886L20.6704 48.7178L20.653 48.8227L20.7079 49.0323L20.7608 49.2095L20.1404 48.9276L19.9823 48.9467L19.8931 49.2125L20.1943 49.3335L21.1881 49.3687L21.3136 49.4023L21.4548 49.4384L21.7199 49.5623L22.0034 49.6842L22.3049 49.5966L22.465 49.4191L22.6602 49.227L22.8743 48.9276L22.9797 48.7875L23.0674 48.6439L23.1941 48.4343L23.2469 48.2934L23.2995 48.1685L23.3361 48.0282L23.3551 47.957L23.4425 47.833L23.6559 47.9758L23.6749 48.011L23.6986 48.0253L24.123 48.3046L24.2287 48.4984L24.4062 48.8346L24.3534 49.2044L24.1953 49.5551L24.177 49.7297L24.1424 50.0276L24.2298 50.2402L24.7079 50.7665L24.78 50.9612L24.9202 51.4543L24.9751 51.576V51.5952H24.9923L25.2247 51.7187L25.7721 51.6649H25.8286L26.0215 51.6827L26.2713 52.0011V52.7907L26.5197 52.8624L27.0509 52.7387L28.7179 52.81L29.0183 52.7051L29.6055 52.3017L29.6757 52.2658L29.8898 52.1614L30.1922 52.1968L30.3503 52.3017L30.5272 52.4059L30.7411 52.6708L30.795 52.7407L30.9023 53.1625L30.9552 53.6732L31.275 53.9536L32.072 54.2015L32.1779 54.2712L32.266 54.3407L32.409 54.5002L32.4975 54.5708L32.5675 54.6235H32.8173L33.1369 54.5529L33.4002 54.5002H33.5969L33.8255 54.6405L34.1279 55.0439L34.3056 55.1842L34.3239 55.2033L34.5369 55.149L34.749 55.0966H34.8195L34.997 55.1143L35.1219 55.3962L35.1575 55.5013L35.05 55.6062L34.9597 55.6959L34.9071 55.9424L35.2264 56.2752L35.1381 56.329L35.1018 56.3483L35.0491 56.3655L34.9588 56.3989L34.8007 56.418L34.6426 56.3989L34.6607 56.4532L34.6778 56.5571L34.6952 56.6275L34.7307 56.6972V56.7165L34.6234 57.0143L34.5532 57.1573V57.1746L34.4468 57.3156L34.2887 57.1746L34.1814 57.2459L34.1274 57.368L34.1094 57.4556L34.092 57.5787L34.0746 57.7548L34.2679 58.0215L34.0385 58.5475L33.4878 59.4281L33.7905 59.3384H33.9307L34.0746 59.4081L34.0385 59.4794L33.9133 59.673L33.6649 60.1838L33.4872 60.4467L33.4171 60.4991L33.2575 60.5515L33.1346 60.6058L33.0971 60.6228L32.2631 61.5385L32.0697 61.7508L32.0869 62.0838V62.2429L32.1208 62.2952L32.3159 62.5744L32.6353 62.7869L32.6883 62.8043L32.9368 62.9285H32.9539L33.1506 62.9814L33.1335 63.1558V63.2261L33.077 63.4209L32.9896 63.738H33.007L33.1335 63.8084L33.2383 63.8781L33.3458 63.8971H33.3995L33.4704 63.8781L33.5581 63.8597L33.7548 63.561L33.772 63.5271L33.8948 63.424L33.9852 63.4576L34.038 63.4747L34.3203 63.7931L34.4642 63.8971L35.6867 63.8635L35.9873 63.9666H36.0063L37.0337 64L37.1412 63.9827L37.3171 63.9494L37.3528 63.6683L37.2643 63.5271L37.1213 63.424L37.0156 63.2461L36.9591 62.9659L37.1733 63.0191L37.3688 62.8238L37.4398 62.5592L37.4054 62.3673L37.3833 62.1694L37.5075 61.959L37.7031 61.8541L38.0193 61.8731L38.1787 61.6779L38.2691 61.4511V61.2741L38.1424 60.8165L38.1613 60.6755L38.2316 60.5507L38.2652 60.4632L37.8054 60.3064L37.4693 60.095L37.3627 59.9722L37.3273 59.797V59.4608L37.3982 59.2143L37.4856 59.0188L37.4504 58.8967L36.9372 58.9491L36.5648 58.8268L36.3688 58.8091L36.1741 58.8615L35.8014 59.0377L35.6065 59.071L35.5882 58.5081L35.3741 57.8754L35.2867 57.3646L35.6765 57.154L35.8733 57.2577L36.0494 57.4675L36.245 57.6468L36.509 57.613L36.6897 57.416L36.953 56.8557L37.1498 56.6428L38.443 55.6217L39.2402 55.1824L39.4543 54.903L39.1528 54.621L39.4708 54.3559L39.5774 54.2855L39.2576 54.1815L38.5498 54.6553L38.2128 54.4809L38.1051 54.0775L38.141 53.5845L38.2664 53.145L38.4075 52.8985L38.7099 52.5462L39.4369 51.2272L39.5774 51.0854L39.9306 50.8389L40.0729 50.6468L40.1441 50.3664L40.1802 49.8734L40.2706 49.6804L40.0562 49.4339L40.0738 49.0305L40.1811 48.5558L40.234 48.1163L40.164 47.7116L40.0562 46.972L39.4916 46.3203L38.5516 45.0368L38.497 44.755L38.5679 44.4413L38.726 43.929L37.7688 43.5255L37.4492 43.1221L37.6457 42.4875L37.5021 42.3463L37.1841 42.1177L37.0237 42.0464L36.6172 42.0654L36.4745 42.0128L36.4925 41.7662L36.8123 41.4514L36.8297 40.9915L36.6328 40.5515L36.3166 40.3064L36.3676 40.1112L36.5989 39.9556L37.1848 39.8483L37.451 39.7259L37.7334 39.5155L37.9283 39.4088L38.4947 39.2519L38.9557 39.3741L39.2926 39.4637L39.5243 39.5159L39.3281 39.2167L38.7973 38.6728L38.6196 38.5471L39.0977 38.2846L39.5578 38.4966L40.0196 38.8642L40.4978 39.0596L40.9407 38.97L41.0674 38.9872L41.1726 39.0948L41.3307 39.3741L41.4016 39.4453L41.9339 39.535L42.1643 39.6573L42.1986 40.0092L42.731 39.868L42.7854 39.6396L42.6788 39.1289L43.5822 39.3926H43.8645L44.0953 39.2878L44.7857 38.7609L46.186 38.286L47.444 38.2499L47.8166 38.0394L48.1554 37.6526L48.475 37.0699L48.5979 36.9482L48.7035 36.9299L48.7758 36.8602L48.793 36.5782L48.7575 36.4213L48.6873 36.3142L48.3338 35.9272L47.4121 35.4173L47.1113 35.3308L46.8983 35.1706L46.8622 34.8207L46.9692 34.5928L47.0944 34.5406H47.2342L47.4121 34.4509L47.519 34.3082L47.6407 34.0081L47.7134 33.8862L47.9619 33.6396L48.1748 33.5168L49.097 33.4137L49.2745 33.2557L49.5925 32.6219L49.8592 32.3418L50.4622 32.0766L50.7436 31.8317L51.0824 31.3032L51.2405 31.128L51.8607 30.7409L51.8959 30.6172L51.7733 30.4065L51.6484 29.9148V29.489L51.7539 29.1403L52.0364 28.4883L52.1945 27.6271L51.9996 27.0444L51.1499 25.6535L51.0596 25.6887L50.9722 25.8456L50.8473 25.9695L50.4932 26.0755L50.1205 26.0928L49.7305 26.0211L49.0028 25.7409L47.8871 25.584L47.516 25.4079L47.2319 25.0903L47.1434 24.7541L47.1244 24.3507L47.0707 23.9473L46.8947 23.5944L47.1244 23.5775L47.9058 23.1887L47.4433 22.8019L47.3383 22.6625V22.4655L47.4094 22.2741L47.427 22.0612L47.304 21.8147L47.7992 21.4639L48.2783 21.3214L49.625 21.3039L50.3681 21.5336L51.0596 21.4278L51.2744 21.5175L51.7701 21.6744L52.036 21.1829L52.1417 20.3738L52.2656 17.8736L52.3892 17.0988L52.6376 16.3956L53.7919 14.5831L54.0946 13.8088L54.2174 13.0693L54.2348 12.2423L54.1115 10.569L54.0569 10.3776L53.9873 10.2537L53.934 10.1127L53.9171 9.83146L53.9505 9.6385L54.1436 9.13044ZM35.5819 24.5251L35.4216 25.069L35.1566 25.5276L34.5889 26.3364L34.2892 26.6697L33.8282 27.0058L33.3492 27.2524L32.5336 27.4962L32.1074 27.8469L31.4687 28.6228L31.0089 29.6966L30.8492 29.8727L29.6278 30.1712L29.0248 30.1186L28.4035 29.8205L27.0911 28.8702L26.8068 28.8351L26.2055 28.9048L25.8686 28.8702L25.6016 28.766L24.8938 28.2719L24.6106 28.1688L23.9712 28.1165L23.7427 28.0468L22.8718 27.4993L22.9436 27.3944L23.031 27.3599L23.0502 27.3427V27.1665L23.2634 27.2008L23.3526 27.255L23.4583 27.3427V27.1665L23.6724 27.3247L23.7953 27.0782L23.9019 26.7259L24.0794 26.5515L24.2375 26.4991L24.3969 26.3563L24.5218 26.1647L24.6293 25.9182L24.3988 25.7958L24.2933 25.6024L24.2029 25.409L24.0433 25.2663L24.3276 25.1439L24.4333 25.1271L24.3631 24.8965L24.3285 24.8068L24.612 24.5087L24.5063 23.9485L24.046 22.9097L23.8495 22.2425L23.8323 21.6607L24.0462 21.2723L24.5419 21.1844L24.9144 21.3245L25.021 21.396L25.2705 21.6607L25.4654 21.6255L25.6795 21.5383L26.5477 20.9913L26.7772 20.7288L26.9547 20.1822L27.169 19.9906L27.6298 19.76L27.5769 19.532L27.5414 19.2165L27.4884 18.9337L27.3994 18.8122L26.6733 18.4944L26.4429 18.4774L26.248 18.5119L26.0886 18.5993L25.9474 18.7423L25.7523 18.8642L25.5757 18.7593L25.4155 18.5831L25.275 18.4935L25.0801 18.1762L25.0429 16.6986L24.9729 16.1894L24.2632 14.7631L23.9606 14.519L24.5478 14.2725L25.1492 13.9025L27.3838 11.933L28.5715 11.1764L28.7296 11.6683L28.8189 11.8826L28.9609 12.1291L29.1021 12.2156L29.1556 12.5159L29.1387 12.8144L29.0494 13.0946L29.1897 13.359L29.2453 13.7288L29.175 14.0986L28.9081 14.4124L29.105 14.7817L28.9783 14.9592L28.7493 15.0811L28.5901 15.346L28.5201 15.3812L28.4489 15.4507V15.6806L28.5038 15.8207L28.5919 15.8902L28.6987 15.9426L28.7877 16.0482L29.0883 16.2947L29.531 16.4186L30.4183 16.4556L30.594 16.5074L30.9312 16.7172L31.1444 16.7694L31.3741 16.7358L31.5168 16.6647L31.8166 16.4556L32.049 16.366H32.2628L33.2907 16.6645L33.4508 16.7882L32.9368 16.8918L32.5108 17.1921L32.1745 17.6506L31.8906 18.2109L31.7657 18.7936L31.6589 19.7597L31.6761 20.6562L31.9259 21.0433L32.1018 21.1856L32.4388 21.8187L32.5646 21.9951L32.7931 22.0645L34.6559 21.9597L34.9044 22.0121L35.0995 22.1549L35.2416 22.3992L35.347 22.786L35.5467 23.6419L35.5995 24.0677L35.5819 24.5251ZM32.8521 22.4115L32.4625 22.0081L32.214 22.2015L31.399 22.4646L31.1492 22.6416L30.529 23.2566L30.3885 23.2766L30.1042 23.2398L29.9987 23.3294L29.6599 24.1934L29.465 24.3335L28.9343 24.5464L28.2947 25.1246L27.2332 25.5466L26.6295 26.1461L25.7439 26.6206L25.3365 27.0058L25.088 27.1468L25.2303 27.4973L25.2832 27.8321L25.3715 28.0968L25.673 28.2537L26.3124 28.2194L26.5412 28.2537L27.5164 28.6237L27.9593 28.8702L28.8082 29.5394L29.18 29.6948L30.1218 29.6614L30.6173 29.4666L30.919 29.0632L31.0073 28.4821L30.9016 27.7766L31.2915 27.5652L31.4882 27.4931L31.7167 27.4758L31.9311 27.3709L32.2314 26.9319L32.4092 26.827L32.7818 26.7566L33.4555 26.4397L33.8621 26.3693L34.2532 26.2275L34.6252 25.8752L34.9258 25.4186L35.158 24.9792L35.3703 24.4162V23.9576L35.0862 22.9361L32.8521 22.4115ZM5.19702 43.2593L5.83392 43.2219L5.92313 43.1522L6.27839 42.7488L6.4733 42.7658L6.59638 42.8716L6.6856 42.9955L6.77481 43.0829L7.32317 43.312L7.55444 43.4872L7.64274 43.7701L7.78322 44.0686L8.08564 44.279L8.61751 44.4727L8.86595 44.4897L9.94822 44.279L10.1967 44.1916L10.427 44.0334L10.5693 43.8043L10.5338 43.435L10.2685 43.2407L9.68126 43.0838L9.54101 42.9606L9.4527 42.8364L9.38066 42.7145L8.83162 42.063L8.6008 41.8882L8.28123 41.8187L6.93403 41.7813L6.7398 41.6755L6.50853 41.6578L6.45591 41.6755L5.26794 41.853L4.75413 42.1865L4.71867 42.9077L4.91358 43.171L5.19702 43.2593ZM11.6665 50.0141L11.5782 50.1008L11.3297 50.4532L10.8507 50.418L10.7624 50.3837L10.6219 50.277L10.2832 50.2248L10.1219 50.1712L9.99904 50.0312L9.83959 49.6795L9.75128 49.5394L9.55637 49.4155L9.23657 49.2916L8.93506 49.2745L8.7939 49.4682L8.72366 49.9092L8.52695 50.136L7.14588 50.7187L6.80891 50.7714L6.27703 50.6121H5.70947L5.40706 50.489L4.98156 50.0489L3.59891 49.662L2.71268 49.0991L2.50128 49.1168L2.28718 49.2922L0 50.0318L0.0718186 50.5948L0.106601 50.8933L0.0537502 51.4585L0.0354579 51.9843L0.16103 52.3539L0.23127 52.5475L0.569817 52.9164L0.798603 53.0222L0.995318 53.1098L1.27876 53.145L1.42082 53.1623L1.98838 53.0744L2.09475 53.0574L2.11305 52.9677L2.13044 52.844L2.09475 52.5625L2.11305 52.4744L2.13044 52.2996L2.28853 52.1414H2.30592L2.50264 52.0874L2.7312 52.0701L3.29966 51.9482H3.33512L3.65492 51.9301L4.00838 51.9825L5.72822 52.5457L5.99495 52.7219L6.06496 53.0211L6.0478 53.2676L6.06496 53.4964L6.27839 53.7429L6.43784 53.8142L6.45523 53.8312L8.1211 53.8142L8.3352 53.7429L8.4409 53.7087L8.52831 53.6372L9.07938 53.2147L10.8329 52.3362L11.5253 51.7905L12.0755 51.0338L12.1283 50.8754L12.1453 50.8232L12.2521 50.3133V50.2241L11.9506 50.0475L11.6665 50.0141ZM19.9075 13.1757L20.3865 13.0356L20.7063 12.4191L21.3629 11.8752L21.7529 11.275L21.9478 10.9061L22.0361 10.6089H21.7545V10.4662L21.9968 10.2535V9.88391L21.8557 9.46168L21.6608 9.14635L21.7326 9.03967L21.75 8.93456L21.7136 8.81286L21.6608 8.66988L21.2179 8.65262L20.8644 9.23532L20.5277 9.93926L19.8524 10.5009L19.5154 11.0657L19.234 11.751L19.1437 12.3666L19.4086 12.963L19.9075 13.1757Z"
        fill="currentColor" />
    <path
        d="M73.608 25.456V24.232H78.816V25.528L77.016 25.816L72.072 40.048H69.744L64.584 25.672L63.192 25.528V24.232H70.92V25.456L68.88 25.72L72.168 35.608L75.48 25.768L73.608 25.456ZM83.6436 40.36C82.3956 40.36 81.3156 40.104 80.4036 39.592C79.4916 39.064 78.7876 38.336 78.2916 37.408C77.7956 36.464 77.5476 35.376 77.5476 34.144C77.5476 32.912 77.8116 31.84 78.3396 30.928C78.8836 30.016 79.6196 29.304 80.5476 28.792C81.4756 28.28 82.5076 28.024 83.6436 28.024C84.7796 28.024 85.8036 28.272 86.7156 28.768C87.6436 29.264 88.3796 29.976 88.9236 30.904C89.4676 31.816 89.7396 32.896 89.7396 34.144C89.7396 35.392 89.4916 36.48 88.9956 37.408C88.4996 38.336 87.7956 39.064 86.8836 39.592C85.9716 40.104 84.8916 40.36 83.6436 40.36ZM83.6436 39.112C84.3156 39.112 84.8196 38.72 85.1556 37.936C85.4916 37.152 85.6596 35.912 85.6596 34.216C85.6596 32.504 85.4916 31.256 85.1556 30.472C84.8196 29.688 84.3156 29.296 83.6436 29.296C82.9556 29.296 82.4436 29.688 82.1076 30.472C81.7716 31.256 81.6036 32.504 81.6036 34.216C81.6036 35.912 81.7716 37.152 82.1076 37.936C82.4436 38.72 82.9556 39.112 83.6436 39.112ZM97.3779 40.36C96.1299 40.36 95.0499 40.104 94.1379 39.592C93.2259 39.064 92.5219 38.336 92.0259 37.408C91.5299 36.464 91.2819 35.376 91.2819 34.144C91.2819 32.912 91.5459 31.84 92.0739 30.928C92.6179 30.016 93.3539 29.304 94.2819 28.792C95.2099 28.28 96.2419 28.024 97.3779 28.024C98.5139 28.024 99.5379 28.272 100.45 28.768C101.378 29.264 102.114 29.976 102.658 30.904C103.202 31.816 103.474 32.896 103.474 34.144C103.474 35.392 103.226 36.48 102.73 37.408C102.234 38.336 101.53 39.064 100.618 39.592C99.7059 40.104 98.6259 40.36 97.3779 40.36ZM97.3779 39.112C98.0499 39.112 98.5539 38.72 98.8899 37.936C99.2259 37.152 99.3939 35.912 99.3939 34.216C99.3939 32.504 99.2259 31.256 98.8899 30.472C98.5539 29.688 98.0499 29.296 97.3779 29.296C96.6899 29.296 96.1779 29.688 95.8419 30.472C95.5059 31.256 95.3379 32.504 95.3379 34.216C95.3379 35.912 95.5059 37.152 95.8419 37.936C96.1779 38.72 96.6899 39.112 97.3779 39.112ZM104.804 40V38.872L106.124 38.608C106.14 38.016 106.148 37.384 106.148 36.712C106.148 36.04 106.148 35.456 106.148 34.96V33.544C106.148 33.096 106.14 32.728 106.124 32.44C106.124 32.152 106.116 31.888 106.1 31.648C106.1 31.392 106.092 31.104 106.076 30.784L104.612 30.568V29.632L109.34 28.024L109.772 28.288L109.988 31.12C110.324 30.096 110.796 29.328 111.404 28.816C112.012 28.288 112.612 28.024 113.204 28.024C113.732 28.024 114.188 28.176 114.572 28.48C114.956 28.768 115.196 29.208 115.292 29.8C115.276 30.424 115.108 30.912 114.788 31.264C114.468 31.6 114.068 31.768 113.588 31.768C112.916 31.768 112.3 31.392 111.74 30.64L111.596 30.448C111.244 30.784 110.916 31.208 110.612 31.72C110.324 32.232 110.116 32.768 109.988 33.328V34.96C109.988 35.456 109.988 36.024 109.988 36.664C109.988 37.304 109.996 37.904 110.012 38.464L111.908 38.872V40H104.804ZM115.423 40.024V38.896L116.695 38.632C116.711 38.056 116.719 37.432 116.719 36.76C116.719 36.072 116.719 35.48 116.719 34.984V24.856L115.231 24.664V23.656L120.199 22.576L120.583 22.816L120.487 26.176V29.56C121.495 28.536 122.655 28.024 123.967 28.024C124.847 28.024 125.639 28.256 126.343 28.72C127.047 29.168 127.607 29.848 128.023 30.76C128.455 31.656 128.671 32.768 128.671 34.096C128.671 35.392 128.431 36.512 127.951 37.456C127.471 38.384 126.839 39.104 126.055 39.616C125.287 40.112 124.447 40.36 123.535 40.36C122.223 40.36 121.167 39.888 120.367 38.944L119.959 40.336L115.423 40.024ZM122.215 30.112C121.911 30.112 121.623 30.176 121.351 30.304C121.079 30.432 120.815 30.6 120.559 30.808V37.672C121.055 38.12 121.599 38.344 122.191 38.344C122.895 38.344 123.471 38 123.919 37.312C124.383 36.624 124.615 35.576 124.615 34.168C124.615 32.744 124.391 31.712 123.943 31.072C123.511 30.432 122.935 30.112 122.215 30.112ZM136.163 29.272C135.715 29.272 135.299 29.552 134.915 30.112C134.547 30.656 134.339 31.664 134.291 33.136H136.331C136.907 33.136 137.291 33.024 137.483 32.8C137.691 32.56 137.795 32.168 137.795 31.624C137.795 30.824 137.635 30.232 137.315 29.848C136.995 29.464 136.611 29.272 136.163 29.272ZM136.211 40.36C135.043 40.36 134.011 40.12 133.115 39.64C132.219 39.144 131.515 38.44 131.003 37.528C130.491 36.6 130.235 35.496 130.235 34.216C130.235 32.872 130.531 31.744 131.123 30.832C131.731 29.904 132.507 29.208 133.451 28.744C134.395 28.264 135.379 28.024 136.403 28.024C137.459 28.024 138.355 28.248 139.091 28.696C139.843 29.144 140.411 29.752 140.795 30.52C141.179 31.272 141.371 32.136 141.371 33.112C141.371 33.576 141.323 34 141.227 34.384H134.291C134.371 35.648 134.715 36.584 135.323 37.192C135.947 37.784 136.675 38.08 137.507 38.08C138.163 38.08 138.723 37.96 139.187 37.72C139.651 37.464 140.059 37.152 140.411 36.784L141.251 37.552C140.755 38.496 140.083 39.2 139.235 39.664C138.387 40.128 137.379 40.36 136.211 40.36ZM148.679 29.272C148.231 29.272 147.815 29.552 147.431 30.112C147.063 30.656 146.855 31.664 146.807 33.136H148.847C149.423 33.136 149.807 33.024 149.999 32.8C150.207 32.56 150.311 32.168 150.311 31.624C150.311 30.824 150.151 30.232 149.831 29.848C149.511 29.464 149.127 29.272 148.679 29.272ZM148.727 40.36C147.559 40.36 146.527 40.12 145.631 39.64C144.735 39.144 144.031 38.44 143.519 37.528C143.007 36.6 142.751 35.496 142.751 34.216C142.751 32.872 143.047 31.744 143.639 30.832C144.247 29.904 145.023 29.208 145.967 28.744C146.911 28.264 147.895 28.024 148.919 28.024C149.975 28.024 150.871 28.248 151.607 28.696C152.359 29.144 152.927 29.752 153.311 30.52C153.695 31.272 153.887 32.136 153.887 33.112C153.887 33.576 153.839 34 153.743 34.384H146.807C146.887 35.648 147.231 36.584 147.839 37.192C148.463 37.784 149.191 38.08 150.023 38.08C150.679 38.08 151.239 37.96 151.703 37.72C152.167 37.464 152.575 37.152 152.927 36.784L153.767 37.552C153.271 38.496 152.599 39.2 151.751 39.664C150.903 40.128 149.895 40.36 148.727 40.36ZM154.796 40V38.872L156.116 38.584C156.132 37.976 156.14 37.368 156.14 36.76C156.156 36.152 156.164 35.552 156.164 34.96V24.904L154.676 24.664V23.656L159.716 22.576L160.1 22.816L160.004 26.176V34.96C160.004 35.568 160.004 36.176 160.004 36.784C160.02 37.392 160.036 38 160.052 38.608L161.372 38.872V40H154.796ZM166.682 34.264C166.682 35.576 166.914 36.576 167.378 37.264C167.842 37.936 168.442 38.272 169.178 38.272C169.722 38.272 170.218 38.088 170.666 37.72V30.568C170.234 30.232 169.762 30.064 169.25 30.064C168.514 30.064 167.898 30.408 167.402 31.096C166.922 31.784 166.682 32.84 166.682 34.264ZM170.978 40.264L170.786 38.896C169.858 39.872 168.73 40.36 167.402 40.36C166.506 40.36 165.69 40.128 164.954 39.664C164.234 39.2 163.666 38.52 163.25 37.624C162.834 36.712 162.626 35.608 162.626 34.312C162.626 33 162.874 31.88 163.37 30.952C163.882 30.008 164.538 29.288 165.338 28.792C166.154 28.28 167.01 28.024 167.906 28.024C168.53 28.024 169.074 28.136 169.538 28.36C170.002 28.568 170.426 28.88 170.81 29.296V24.904L169.13 24.664V23.656L174.194 22.576L174.578 22.816L174.482 26.176V38.632L175.658 38.872V40L170.978 40.264Z"
        fill="currentColor" />
</svg>